<?xml version="1.0" encoding="UTF-8" standalone="no"?><svg xmlns:svg="http://www.w3.org/2000/svg" xmlns="http://www.w3.org/2000/svg" xmlns:xlink="http://www.w3.org/1999/xlink" version="1.0" width="64px" height="64px" viewBox="0 0 128 128" xml:space="preserve"><rect x="0" y="0" width="100%" height="100%" fill="#FFFFFF" /><g><path d="M56 0h16l-5 32h-6.02z" fill="#340bcd"/><path d="M89 4.56l13.87 8-20.33 25.2-5.2-3z" fill="#c2b5f0"/><path d="M115.32 25l8 13.87L93.1 50.54l-3-5.2z" fill="#c2b5f0"/><path d="M127.88 55.88v16l-32-5v-6.02z" fill="#c2b5f0"/><path d="M123.32 88.88l-8 13.86L90.1 82.4l3-5.2z" fill="#c2b5f0"/><path d="M102.87 115.2l-13.86 8-11.65-30.22 5.2-3z" fill="#c2b5f0"/><path d="M72 127.75H56l5-32h6.02z" fill="#ae9deb"/><path d="M39 123.2l-13.87-8 20.33-25.22 5.2 3z" fill="#9985e6"/><path d="M12.68 102.74l-8-13.86L34.9 77.2l3 5.22z" fill="#856de1"/><path d="M.13 71.88v-16l32 5v6z" fill="#7154dc"/><path d="M4.68 38.87l8-13.86L37.9 45.36l-3 5.2z" fill="#5d3cd7"/><path d="M25.13 12.56l13.86-8 11.65 30.2-5.2 3.02z" fill="#4823d2"/><animateTransform attributeName="transform" type="rotate" values="0 64 64;30 64 64;60 64 64;90 64 64;120 64 64;150 64 64;180 64 64;210 64 64;240 64 64;270 64 64;300 64 64;330 64 64" calcMode="discrete" dur="1080ms" repeatCount="indefinite"></animateTransform></g></svg>